<?xml version="1.0" encoding="iso-8859-1"?>
<!-- Generator: Adobe Illustrator 19.0.0, SVG Export Plug-In . SVG Version: 6.00 Build 0)  -->
<svg version="1.1" id="Layer_1" xmlns="http://www.w3.org/2000/svg" xmlns:xlink="http://www.w3.org/1999/xlink" x="0px" y="0px"
	 viewBox="0 0 504.115 504.115" style="enable-background:new 0 0 504.115 504.115;" xml:space="preserve">
<path style="fill:#FF9100;" d="M495.175,447.748c0,4.939-4.017,8.94-8.956,8.94H17.888c-4.939,0-8.956-4.001-8.956-8.94V185.242
	c0-4.939,4.017-8.94,8.956-8.94h468.33c4.939,0,8.956,4.001,8.956,8.94L495.175,447.748L495.175,447.748z"/>
<path style="fill:#FF7300;" d="M8.94,185.242c0-4.939,4.017-8.94,8.956-8.94h468.33c4.939,0,8.956,4.001,8.956,8.94v262.506
	c0,4.939-4.017,8.94-8.956,8.94"/>
<path style="fill:#FFD400;" d="M486.227,465.636H17.888C8.027,465.636,0,457.602,0,447.748V185.242
	c0-9.862,8.034-17.888,17.888-17.888h468.33c9.87,0,17.896,8.034,17.896,17.888v262.506
	C504.123,457.61,496.089,465.636,486.227,465.636z M17.888,185.242v262.506h468.338l-0.008-262.506L17.888,185.242L17.888,185.242z"
	/>
<circle style="fill:#EBF0F2;" cx="89.6" cy="220.641" r="13.296"/>
<path style="fill:#FFD400;" d="M89.6,237.867c-9.5,0-17.235-7.735-17.235-17.235c0-9.507,7.727-17.235,17.235-17.235
	s17.235,7.719,17.235,17.235C106.827,230.132,99.1,237.867,89.6,237.867z M89.6,211.283c-5.167,0-9.358,4.183-9.358,9.358
	c0,5.152,4.183,9.358,9.358,9.358c5.152,0,9.358-4.198,9.358-9.358C98.95,215.465,94.752,211.283,89.6,211.283z"/>
<circle style="fill:#EBF0F2;" cx="414.484" cy="220.641" r="13.296"/>
<path style="fill:#FFD400;" d="M414.523,237.867c-9.507,0-17.235-7.735-17.235-17.235c0-9.507,7.719-17.235,17.235-17.235
	c9.492,0,17.235,7.719,17.235,17.235C431.75,230.132,424.015,237.867,414.523,237.867z M414.523,211.283
	c-5.159,0-9.358,4.183-9.358,9.358c0,5.152,4.191,9.358,9.358,9.358c5.167,0,9.358-4.198,9.358-9.358
	C423.873,215.465,419.682,211.283,414.523,211.283z"/>
<path style="fill:#4D5B58;" d="M412.845,226.052c-2.016,0-4.033-0.772-5.569-2.308L252.062,68.529L96.847,223.744
	c-3.08,3.08-8.058,3.08-11.138,0c-3.08-3.08-3.08-8.058,0-11.138L252.062,46.253l166.353,166.353c3.08,3.08,3.08,8.058,0,11.138
	C416.878,225.288,414.862,226.052,412.845,226.052z"/>
<circle style="fill:#EA186D;" cx="252.062" cy="67.033" r="28.554"/>
<path style="fill:#C91768;" d="M272.242,46.852c11.154,11.138,11.154,29.216,0,40.369s-29.231,11.154-40.385,0"/>
<g>
	<path style="fill:#F4E398;" d="M133.23,346.876L132.017,342c-1.599-6.136-3.97-11.043-7.058-14.683
		c6.806-5.506,10.878-13.659,10.878-22.615c0-9.082-3.458-16.975-9.712-22.205c-6.932-5.829-16.439-8.428-30.838-8.428
		c-8.862,0-18.227,0.709-25.033,1.89c-3.001,0.528-5.207,3.135-5.207,6.207v85.606c0,3.482,2.804,6.302,6.286,6.302h15.714
		c3.474,0,6.286-2.812,6.286-6.302V338.4h1.52c5.018,0.15,7.507,0.638,9.618,10.287c1.757,7.719,4.254,17.794,6.294,21.882
		c1.056,2.143,3.245,3.497,5.632,3.497h16.352c2.213,0,4.277-1.166,5.404-3.072c1.15-1.898,1.182-4.261,0.158-6.215
		C137.137,362.654,135.058,354.273,133.23,346.876z M96.453,314.242h-3.127v-15.549c1.032-0.039,2.182-0.071,3.505-0.071
		c10.705,0,10.705,5.151,10.705,7.617C107.536,313.462,99.769,314.242,96.453,314.242z"/>
	<path style="fill:#F4E398;" d="M222.799,348.491h-30.263v-12.91h26.403c3.489,0,6.309-2.812,6.309-6.302V316.4
		c0-3.482-2.812-6.294-6.309-6.294h-26.403v-9.815h28.341c3.489,0,6.294-2.812,6.294-6.294v-12.997c0-3.482-2.796-6.302-6.294-6.302
		h-50.467c-3.482,0-6.302,2.812-6.302,6.302v86.772c0,3.482,2.812,6.302,6.302,6.302h52.389c3.474,0,6.294-2.812,6.294-6.302
		v-12.981C229.092,351.311,226.28,348.491,222.799,348.491z"/>
	<path style="fill:#F4E398;" d="M331.264,274.708h-14.675c-3.474,0-6.294,2.812-6.294,6.302v30.255c0,2.442,0.008,4.805,0.032,7.097
		c-0.662-1.142-1.323-2.269-1.993-3.387l-22.418-37.218c-1.134-1.898-3.174-3.056-5.396-3.056h-17.999
		c-3.482,0-6.302,2.812-6.302,6.302v86.772c0,3.482,2.812,6.302,6.302,6.302h14.533c3.466,0,6.286-2.812,6.286-6.302v-31.027
		c0-3.513,0-6.837-0.016-10.012c1.126,1.993,2.308,4.049,3.521,6.16l22.662,38.109c1.126,1.906,3.182,3.08,5.404,3.08h16.353
		c3.482,0,6.302-2.812,6.302-6.302v-86.772C337.558,277.52,334.746,274.708,331.264,274.708z"/>
</g>
<g>
	<path style="fill:#EDC16B;" d="M220.877,274.708h-50.467c-1.04,0-1.977,0.307-2.828,0.748l43.685,24.844h9.618
		c3.489,0,6.294-2.812,6.294-6.294v-12.997C227.17,277.52,224.366,274.708,220.877,274.708z"/>
	<path style="fill:#EDC16B;" d="M331.264,274.708h-14.675c-3.474,0-6.294,2.812-6.294,6.302v30.255c0,2.442,0.008,4.805,0.032,7.097
		c-0.662-1.142-1.323-2.269-1.993-3.387l-22.418-37.218c-1.134-1.898-3.174-3.056-5.396-3.056h-17.999
		c-3.482,0-6.302,2.812-6.302,6.302v44.867l27.112,15.423v-4.553c0-3.513,0-6.837-0.016-10.012c1.126,1.993,2.308,4.049,3.521,6.16
		l9.35,15.714l40.086,22.804c0.756-1.04,1.284-2.245,1.284-3.631v-86.764C337.558,277.52,334.746,274.708,331.264,274.708z"/>
	<path style="fill:#EDC16B;" d="M432.782,274.708h-65.528c-3.482,0-6.294,2.812-6.294,6.302v13.249c0,3.482,2.804,6.302,6.294,6.302
		h18.44v67.222c0,3.482,2.812,6.302,6.294,6.302h15.817c3.49,0,6.309-2.812,6.309-6.302V300.56h18.676
		c3.482,0,6.294-2.812,6.294-6.302v-13.249C439.075,277.52,436.271,274.708,432.782,274.708z"/>
</g>
<g>
</g>
<g>
</g>
<g>
</g>
<g>
</g>
<g>
</g>
<g>
</g>
<g>
</g>
<g>
</g>
<g>
</g>
<g>
</g>
<g>
</g>
<g>
</g>
<g>
</g>
<g>
</g>
<g>
</g>
</svg>
