<?xml version="1.0"?>
<svg width="504.115" height="504.115" xmlns="http://www.w3.org/2000/svg" xmlns:svg="http://www.w3.org/2000/svg">
 <g>
  <title>Layer 1</title>
  <path id="svg_1" fill="#FF9100" d="m495.175,447.748c0,4.939 -4.017,8.94 -8.956,8.94l-468.331,0c-4.939,0 -8.956,-4.001 -8.956,-8.94l0,-262.506c0,-4.939 4.017,-8.94 8.956,-8.94l468.33,0c4.939,0 8.956,4.001 8.956,8.94l0.001,262.506l0,0z"/>
  <path id="svg_3" fill="#FFD400" d="m486.227,465.636l-468.339,0c-9.861,0 -17.888,-8.034 -17.888,-17.888l0,-262.506c0,-9.862 8.034,-17.888 17.888,-17.888l468.33,0c9.87,0 17.896,8.034 17.896,17.888l0,262.506c0.009,9.862 -8.025,17.888 -17.887,17.888zm-468.339,-280.394l0,262.506l468.338,0l-0.008,-262.506l-468.33,0l0,0z"/>
  <path id="svg_8" fill="#4D5B58" d="m412.845,226.052c-2.016,0 -4.033,-0.772 -5.569,-2.308l-155.214,-155.215l-155.215,155.215c-3.08,3.08 -8.058,3.08 -11.138,0c-3.08,-3.08 -3.08,-8.058 0,-11.138l166.353,-166.353l166.353,166.353c3.08,3.08 3.08,8.058 0,11.138c-1.537,1.544 -3.553,2.308 -5.57,2.308z"/>
  <circle id="svg_9" fill="#EA186D" r="28.554" cy="67.033" cx="252.062"/>
  <g id="svg_19"/>
  <g id="svg_20"/>
  <g id="svg_21"/>
  <g id="svg_22"/>
  <g id="svg_23"/>
  <g id="svg_24"/>
  <g id="svg_25"/>
  <g id="svg_26"/>
  <g id="svg_27"/>
  <g id="svg_28"/>
  <g id="svg_29"/>
  <g id="svg_30"/>
  <g id="svg_31"/>
  <g id="svg_32"/>
  <g id="svg_33"/>
  <text transform="matrix(2.779231309890747,0,0,2.779231309890747,-300.1896825656295,-553.118533462286) " font-weight="bold" xml:space="preserve" text-anchor="middle" font-family="Sans-serif" font-size="24" id="svg_34" y="324.969152" x="198.351993" stroke-linecap="null" stroke-linejoin="null" stroke-dasharray="null" stroke-width="0" fill="#ffffff">FOR HIRE</text>
 </g>
</svg>